<svg width="136" height="27" viewBox="0 0 136 27" fill="none" xmlns="http://www.w3.org/2000/svg">
<path d="M0 6C0 2.68629 2.68629 0 6 0H130C133.314 0 136 2.68629 136 6V21C136 24.3137 133.314 27 130 27H6C2.68629 27 0 24.3137 0 21V6Z" fill="#191919"/>
<path d="M20.046 19V8.273H16.493V7.1H25.027V8.273H21.474V19H20.046ZM27.5527 8.698C27.2694 8.698 27.0314 8.60733 26.8387 8.426C26.6574 8.23333 26.5667 7.99533 26.5667 7.712C26.5667 7.44 26.6574 7.21333 26.8387 7.032C27.0314 6.85067 27.2694 6.76 27.5527 6.76C27.8247 6.76 28.057 6.85067 28.2497 7.032C28.4424 7.21333 28.5387 7.44 28.5387 7.712C28.5387 7.99533 28.4424 8.23333 28.2497 8.426C28.057 8.60733 27.8247 8.698 27.5527 8.698ZM26.8387 19V10.568H28.2667V19H26.8387ZM30.7531 22.74V10.568H32.0451L32.1811 11.962C32.4531 11.554 32.8384 11.1857 33.3371 10.857C33.8471 10.5283 34.4931 10.364 35.2751 10.364C36.1137 10.364 36.8447 10.5567 37.4681 10.942C38.0914 11.3273 38.5731 11.8543 38.9131 12.523C39.2644 13.1917 39.4401 13.951 39.4401 14.801C39.4401 15.651 39.2644 16.4103 38.9131 17.079C38.5731 17.7363 38.0857 18.2577 37.4511 18.643C36.8277 19.017 36.0967 19.204 35.2581 19.204C34.5667 19.204 33.9491 19.0623 33.4051 18.779C32.8724 18.4957 32.4644 18.099 32.1811 17.589V22.74H30.7531ZM35.1051 17.963C35.6717 17.963 36.1704 17.8327 36.6011 17.572C37.0317 17.3 37.3717 16.926 37.6211 16.45C37.8704 15.974 37.9951 15.4187 37.9951 14.784C37.9951 14.1493 37.8704 13.594 37.6211 13.118C37.3717 12.642 37.0317 12.2737 36.6011 12.013C36.1704 11.741 35.6717 11.605 35.1051 11.605C34.5384 11.605 34.0397 11.741 33.6091 12.013C33.1784 12.2737 32.8384 12.642 32.5891 13.118C32.3397 13.594 32.2151 14.1493 32.2151 14.784C32.2151 15.4187 32.3397 15.974 32.5891 16.45C32.8384 16.926 33.1784 17.3 33.6091 17.572C34.0397 17.8327 34.5384 17.963 35.1051 17.963ZM44.6579 19.204C43.6492 19.204 42.8105 18.949 42.1419 18.439C41.4732 17.929 41.0822 17.2377 40.9689 16.365H42.4309C42.5215 16.807 42.7539 17.1923 43.1279 17.521C43.5132 17.8383 44.0289 17.997 44.6749 17.997C45.2755 17.997 45.7175 17.8723 46.0009 17.623C46.2842 17.3623 46.4259 17.0563 46.4259 16.705C46.4259 16.195 46.2389 15.855 45.8649 15.685C45.5022 15.515 44.9865 15.362 44.3179 15.226C43.8645 15.1353 43.4112 15.005 42.9579 14.835C42.5045 14.665 42.1249 14.427 41.8189 14.121C41.5129 13.8037 41.3599 13.39 41.3599 12.88C41.3599 12.1433 41.6319 11.5427 42.1759 11.078C42.7312 10.602 43.4792 10.364 44.4199 10.364C45.3152 10.364 46.0462 10.5907 46.6129 11.044C47.1909 11.486 47.5252 12.1207 47.6159 12.948H46.2049C46.1482 12.5173 45.9612 12.183 45.6439 11.945C45.3379 11.6957 44.9242 11.571 44.4029 11.571C43.8929 11.571 43.4962 11.6787 43.2129 11.894C42.9409 12.1093 42.8049 12.3927 42.8049 12.744C42.8049 13.084 42.9805 13.3503 43.3319 13.543C43.6945 13.7357 44.1819 13.9 44.7939 14.036C45.3152 14.1493 45.8082 14.291 46.2729 14.461C46.7489 14.6197 47.1342 14.8633 47.4289 15.192C47.7349 15.5093 47.8879 15.974 47.8879 16.586C47.8992 17.3453 47.6102 17.9743 47.0209 18.473C46.4429 18.9603 45.6552 19.204 44.6579 19.204ZM58.0309 19.204C57.2149 19.204 56.4952 19.0567 55.8719 18.762C55.2599 18.456 54.7782 18.0367 54.4269 17.504C54.0869 16.96 53.9169 16.3197 53.9169 15.583C53.9169 14.7783 54.1492 14.0643 54.6139 13.441C55.0899 12.8063 55.7756 12.3077 56.6709 11.945C56.2856 11.5257 56.0079 11.129 55.8379 10.755C55.6679 10.3697 55.5829 9.956 55.5829 9.514C55.5829 8.75467 55.8492 8.13133 56.3819 7.644C56.9259 7.14533 57.6682 6.896 58.6089 6.896C59.2209 6.896 59.7536 7.015 60.2069 7.253C60.6602 7.47967 61.0116 7.797 61.2609 8.205C61.5102 8.613 61.6236 9.07767 61.6009 9.599H60.1899C60.2012 9.089 60.0426 8.70367 59.7139 8.443C59.3966 8.18233 59.0282 8.052 58.6089 8.052C58.0989 8.052 57.7022 8.188 57.4189 8.46C57.1356 8.732 56.9939 9.07767 56.9939 9.497C56.9939 9.85967 57.0902 10.211 57.2829 10.551C57.4869 10.891 57.7872 11.2707 58.1839 11.69L61.9409 15.481C62.2696 15.005 62.6266 14.4327 63.0119 13.764L63.5389 12.846H65.0519L64.3039 14.172C63.8052 15.0673 63.3292 15.8153 62.8759 16.416L65.4429 19H63.6409L62.0599 17.402C61.4592 18.048 60.8359 18.5127 60.1899 18.796C59.5439 19.068 58.8242 19.204 58.0309 19.204ZM55.3449 15.532C55.3449 16.2347 55.5942 16.8183 56.0929 17.283C56.5916 17.7477 57.2432 17.98 58.0479 17.98C58.6486 17.98 59.1926 17.8667 59.6799 17.64C60.1786 17.402 60.6659 17.0167 61.1419 16.484L57.5379 12.829C56.7899 13.1237 56.2346 13.4977 55.8719 13.951C55.5206 14.4043 55.3449 14.9313 55.3449 15.532ZM74.2501 19V8.273H70.6971V7.1H79.2311V8.273H75.6781V19H74.2501ZM79.9269 19V10.568H81.2189L81.3379 12.183C81.5986 11.6277 81.9952 11.1857 82.5279 10.857C83.0606 10.5283 83.7179 10.364 84.4999 10.364V11.86H84.1089C83.6102 11.86 83.1512 11.9507 82.7319 12.132C82.3126 12.302 81.9782 12.5967 81.7289 13.016C81.4796 13.4353 81.3549 14.0133 81.3549 14.75V19H79.9269ZM86.9697 8.698C86.6864 8.698 86.4484 8.60733 86.2557 8.426C86.0744 8.23333 85.9837 7.99533 85.9837 7.712C85.9837 7.44 86.0744 7.21333 86.2557 7.032C86.4484 6.85067 86.6864 6.76 86.9697 6.76C87.2417 6.76 87.474 6.85067 87.6667 7.032C87.8594 7.21333 87.9557 7.44 87.9557 7.712C87.9557 7.99533 87.8594 8.23333 87.6667 8.426C87.474 8.60733 87.2417 8.698 86.9697 8.698ZM86.2557 19V10.568H87.6837V19H86.2557ZM94.0461 19.204C93.2414 19.204 92.5161 19.0227 91.8701 18.66C91.2354 18.286 90.7311 17.7703 90.3571 17.113C89.9944 16.4443 89.8131 15.668 89.8131 14.784C89.8131 13.9 89.9944 13.1293 90.3571 12.472C90.7311 11.8033 91.2354 11.2877 91.8701 10.925C92.5161 10.551 93.2414 10.364 94.0461 10.364C95.0434 10.364 95.8821 10.6247 96.5621 11.146C97.2534 11.6673 97.6897 12.3643 97.8711 13.237H96.4091C96.2957 12.7157 96.0181 12.3133 95.5761 12.03C95.1341 11.7353 94.6184 11.588 94.0291 11.588C93.5531 11.588 93.1054 11.707 92.6861 11.945C92.2667 12.183 91.9267 12.54 91.6661 13.016C91.4054 13.492 91.2751 14.0813 91.2751 14.784C91.2751 15.4867 91.4054 16.076 91.6661 16.552C91.9267 17.028 92.2667 17.3907 92.6861 17.64C93.1054 17.878 93.5531 17.997 94.0291 17.997C94.6184 17.997 95.1341 17.8553 95.5761 17.572C96.0181 17.2773 96.2957 16.8637 96.4091 16.331H97.8711C97.7011 17.181 97.2704 17.8723 96.5791 18.405C95.8877 18.9377 95.0434 19.204 94.0461 19.204ZM99.8654 19V6.76H101.293V14.121L104.744 10.568H106.495L102.755 14.376L106.971 19H105.152L101.293 14.631V19H99.8654ZM111.164 19.204C110.155 19.204 109.316 18.949 108.648 18.439C107.979 17.929 107.588 17.2377 107.475 16.365H108.937C109.027 16.807 109.26 17.1923 109.634 17.521C110.019 17.8383 110.535 17.997 111.181 17.997C111.781 17.997 112.223 17.8723 112.507 17.623C112.79 17.3623 112.932 17.0563 112.932 16.705C112.932 16.195 112.745 15.855 112.371 15.685C112.008 15.515 111.492 15.362 110.824 15.226C110.37 15.1353 109.917 15.005 109.464 14.835C109.01 14.665 108.631 14.427 108.325 14.121C108.019 13.8037 107.866 13.39 107.866 12.88C107.866 12.1433 108.138 11.5427 108.682 11.078C109.237 10.602 109.985 10.364 110.926 10.364C111.821 10.364 112.552 10.5907 113.119 11.044C113.697 11.486 114.031 12.1207 114.122 12.948H112.711C112.654 12.5173 112.467 12.183 112.15 11.945C111.844 11.6957 111.43 11.571 110.909 11.571C110.399 11.571 110.002 11.6787 109.719 11.894C109.447 12.1093 109.311 12.3927 109.311 12.744C109.311 13.084 109.486 13.3503 109.838 13.543C110.2 13.7357 110.688 13.9 111.3 14.036C111.821 14.1493 112.314 14.291 112.779 14.461C113.255 14.6197 113.64 14.8633 113.935 15.192C114.241 15.5093 114.394 15.974 114.394 16.586C114.405 17.3453 114.116 17.9743 113.527 18.473C112.949 18.9603 112.161 19.204 111.164 19.204Z" fill="white"/>
</svg>
