<svg width="73" height="27" viewBox="0 0 73 27" fill="none" xmlns="http://www.w3.org/2000/svg">
<path d="M0 6C0 2.68629 2.68629 0 6 0H67C70.3137 0 73 2.68629 73 6V21C73 24.3137 70.3137 27 67 27H6C2.68629 27 0 24.3137 0 21V6Z" fill="#191919"/>
<path d="M22.75 20.216C21.574 20.216 20.542 19.946 19.654 19.406C18.766 18.854 18.076 18.092 17.584 17.12C17.092 16.136 16.846 15.002 16.846 13.718C16.846 12.434 17.092 11.3 17.584 10.316C18.088 9.332 18.796 8.564 19.708 8.012C20.632 7.46 21.718 7.184 22.966 7.184C24.382 7.184 25.558 7.526 26.494 8.21C27.442 8.894 28.054 9.836 28.33 11.036H26.584C26.416 10.28 26.014 9.68 25.378 9.236C24.754 8.792 23.95 8.57 22.966 8.57C22.042 8.57 21.238 8.78 20.554 9.2C19.87 9.608 19.336 10.196 18.952 10.964C18.58 11.732 18.394 12.65 18.394 13.718C18.394 14.786 18.58 15.704 18.952 16.472C19.324 17.24 19.84 17.834 20.5 18.254C21.16 18.662 21.928 18.866 22.804 18.866C24.148 18.866 25.162 18.476 25.846 17.696C26.53 16.904 26.92 15.824 27.016 14.456H23.38V13.268H28.564V20H27.178L27.052 17.93C26.596 18.662 26.038 19.226 25.378 19.622C24.718 20.018 23.842 20.216 22.75 20.216ZM34.879 20.216C34.027 20.216 33.271 20.024 32.611 19.64C31.951 19.244 31.429 18.698 31.045 18.002C30.673 17.306 30.487 16.484 30.487 15.536C30.487 14.6 30.673 13.784 31.045 13.088C31.417 12.38 31.933 11.834 32.593 11.45C33.265 11.054 34.039 10.856 34.915 10.856C35.779 10.856 36.523 11.054 37.147 11.45C37.783 11.834 38.269 12.344 38.605 12.98C38.941 13.616 39.109 14.3 39.109 15.032C39.109 15.164 39.103 15.296 39.091 15.428C39.091 15.56 39.091 15.71 39.091 15.878H31.981C32.017 16.562 32.173 17.132 32.449 17.588C32.737 18.032 33.091 18.368 33.511 18.596C33.943 18.824 34.399 18.938 34.879 18.938C35.503 18.938 36.025 18.794 36.445 18.506C36.865 18.218 37.171 17.828 37.363 17.336H38.857C38.617 18.164 38.155 18.854 37.471 19.406C36.799 19.946 35.935 20.216 34.879 20.216ZM34.879 12.134C34.159 12.134 33.517 12.356 32.953 12.8C32.401 13.232 32.083 13.868 31.999 14.708H37.615C37.579 13.904 37.303 13.274 36.787 12.818C36.271 12.362 35.635 12.134 34.879 12.134ZM44.0831 20.216C43.3391 20.216 42.7211 20.09 42.2291 19.838C41.7371 19.586 41.3711 19.25 41.1311 18.83C40.8911 18.41 40.7711 17.954 40.7711 17.462C40.7711 16.55 41.1191 15.848 41.8151 15.356C42.5111 14.864 43.4591 14.618 44.6591 14.618H47.0711V14.51C47.0711 13.73 46.8671 13.142 46.4591 12.746C46.0511 12.338 45.5051 12.134 44.8211 12.134C44.2331 12.134 43.7231 12.284 43.2911 12.584C42.8711 12.872 42.6071 13.298 42.4991 13.862H40.9511C41.0111 13.214 41.2271 12.668 41.5991 12.224C41.9831 11.78 42.4571 11.444 43.0211 11.216C43.5851 10.976 44.1851 10.856 44.8211 10.856C46.0691 10.856 47.0051 11.192 47.6291 11.864C48.2651 12.524 48.5831 13.406 48.5831 14.51V20H47.2331L47.1431 18.398C46.8911 18.902 46.5191 19.334 46.0271 19.694C45.5471 20.042 44.8991 20.216 44.0831 20.216ZM44.3171 18.938C44.8931 18.938 45.3851 18.788 45.7931 18.488C46.2131 18.188 46.5311 17.798 46.7471 17.318C46.9631 16.838 47.0711 16.334 47.0711 15.806V15.788H44.7851C43.8971 15.788 43.2671 15.944 42.8951 16.256C42.5351 16.556 42.3551 16.934 42.3551 17.39C42.3551 17.858 42.5231 18.236 42.8591 18.524C43.2071 18.8 43.6931 18.938 44.3171 18.938ZM50.8514 20V11.072H52.2194L52.3454 12.782C52.6214 12.194 53.0414 11.726 53.6054 11.378C54.1694 11.03 54.8654 10.856 55.6934 10.856V12.44H55.2794C54.7514 12.44 54.2654 12.536 53.8214 12.728C53.3774 12.908 53.0234 13.22 52.7594 13.664C52.4954 14.108 52.3634 14.72 52.3634 15.5V20H50.8514Z" fill="white"/>
</svg>
