<svg width="448" height="28" viewBox="0 0 448 28" fill="none" xmlns="http://www.w3.org/2000/svg">
<path d="M17 6H7C4.23858 6 2 8.23858 2 11V21C2 23.7614 4.23858 26 7 26H17C19.7614 26 22 23.7614 22 21V11C22 8.23858 19.7614 6 17 6Z" stroke="white" stroke-width="2" stroke-linecap="round" stroke-linejoin="round"/>
<path d="M16 15.3698C16.1234 16.202 15.9812 17.052 15.5937 17.7988C15.2062 18.5456 14.5931 19.1512 13.8416 19.5295C13.0901 19.9077 12.2384 20.0394 11.4077 19.9057C10.5771 19.7721 9.80971 19.3799 9.21479 18.785C8.61987 18.19 8.22768 17.4227 8.09402 16.592C7.96035 15.7613 8.09202 14.9097 8.47028 14.1582C8.84854 13.4067 9.45414 12.7936 10.2009 12.4061C10.9477 12.0186 11.7977 11.8764 12.63 11.9998C13.4789 12.1257 14.2648 12.5213 14.8716 13.1281C15.4785 13.735 15.8741 14.5209 16 15.3698Z" stroke="white" stroke-width="2" stroke-linecap="round" stroke-linejoin="round"/>
<path d="M17.5 10.5H17.51" stroke="white" stroke-width="2" stroke-linecap="round" stroke-linejoin="round"/>
<path d="M86 6H83C81.6739 6 80.4021 6.52678 79.4645 7.46447C78.5268 8.40215 78 9.67392 78 11V14H75V18H78V26H82V18H85L86 14H82V11C82 10.7348 82.1054 10.4804 82.2929 10.2929C82.4804 10.1054 82.7348 10 83 10H86V6Z" stroke="white" stroke-width="2" stroke-linecap="round" stroke-linejoin="round"/>
<path d="M57 6.9998C56.0424 7.67528 54.9821 8.19191 53.86 8.52981C53.2577 7.83732 52.4573 7.3465 51.567 7.12373C50.6767 6.90097 49.7395 6.957 48.8821 7.28426C48.0247 7.61152 47.2884 8.19421 46.773 8.95352C46.2575 9.71284 45.9877 10.6121 46 11.5298V12.5298C44.2426 12.5754 42.5013 12.1856 40.931 11.3952C39.3607 10.6049 38.0103 9.43844 37 7.9998C37 7.9998 33 16.9998 42 20.9998C39.9405 22.3978 37.4872 23.0987 35 22.9998C44 27.9998 55 22.9998 55 11.4998C55 11.2198 54.97 10.9398 54.92 10.6698C55.9406 9.6633 56.6608 8.39252 57 6.9998Z" stroke="white" stroke-width="2" stroke-linecap="round" stroke-linejoin="round"/>
</svg>
